<svg height="512" viewBox="0 0 64 64" width="512" xmlns="http://www.w3.org/2000/svg"><g id="Life_ring" data-name="Life ring"><path d="m4.95 42.44a12 12 0 0 0 16.61 16.61 28.918 28.918 0 0 1 -16.61-16.61z" fill="#9bc9ff"/><path d="m32 18a13.944 13.944 0 0 1 5.49 1.12l1.89-15.16a28.847 28.847 0 0 0 -14.76 0l1.9 15.155a13.957 13.957 0 0 1 5.48-1.115z" fill="#ed1c24"/><path d="m21.56 4.95a12 12 0 0 0 -16.61 16.61 28.918 28.918 0 0 1 16.61-16.61z" fill="#9bc9ff"/><path d="m26.519 19.115-1.899-15.155a26.018 26.018 0 0 0 -3.06.99 28.918 28.918 0 0 0 -16.61 16.61 26.018 26.018 0 0 0 -.99 3.06l15.155 1.9a14.05 14.05 0 0 1 7.404-7.405z" fill="#d1e7f8"/><path d="m19.12 37.49-15.16 1.89a26.018 26.018 0 0 0 .99 3.06 28.918 28.918 0 0 0 16.61 16.61 26.018 26.018 0 0 0 3.06.99l1.9-15.155a14.048 14.048 0 0 1 -7.4-7.395z" fill="#d1e7f8"/><path d="m32 46a13.957 13.957 0 0 1 -5.481-1.115l-1.899 15.155a28.847 28.847 0 0 0 14.76 0l-1.89-15.16a13.944 13.944 0 0 1 -5.49 1.12z" fill="#d51920"/><path d="m18 32a13.957 13.957 0 0 1 1.115-5.481l-15.155-1.899a28.847 28.847 0 0 0 0 14.76l15.16-1.89a13.944 13.944 0 0 1 -1.12-5.49z" fill="#ed1c24"/><path d="m42.44 59.05a12 12 0 0 0 16.61-16.61 28.918 28.918 0 0 1 -16.61 16.61z" fill="#9bc9ff"/><path d="m37.49 44.88 1.89 15.16a26.018 26.018 0 0 0 3.06-.99 28.918 28.918 0 0 0 16.61-16.61 26.018 26.018 0 0 0 .99-3.06l-15.16-1.89a14.04 14.04 0 0 1 -7.39 7.39z" fill="#d1e7f8"/><path d="m42.44 4.95a26.018 26.018 0 0 0 -3.06-.99l-1.89 15.16a14.048 14.048 0 0 1 7.395 7.4l15.155-1.9a26.018 26.018 0 0 0 -.99-3.06 28.918 28.918 0 0 0 -16.61-16.61z" fill="#d1e7f8"/><path d="m46 32a13.944 13.944 0 0 1 -1.12 5.49l15.16 1.89a28.847 28.847 0 0 0 0-14.76l-15.155 1.9a13.957 13.957 0 0 1 1.115 5.48z" fill="#d51920"/><path d="m49 3a11.934 11.934 0 0 0 -6.56 1.95 28.918 28.918 0 0 1 16.61 16.61 12 12 0 0 0 -10.05-18.56z" fill="#9bc9ff"/><g fill="#8cb5e5"><path d="m43.894 4.138a11.985 11.985 0 0 0 -1.454.812 28.918 28.918 0 0 1 16.61 16.61 11.985 11.985 0 0 0 .812-1.454 28.907 28.907 0 0 0 -15.968-15.968z"/><path d="m20.106 4.138a11.985 11.985 0 0 1 1.454.812 28.918 28.918 0 0 0 -16.61 16.61 11.985 11.985 0 0 1 -.812-1.454 28.907 28.907 0 0 1 15.968-15.968z"/><path d="m43.894 59.862a11.985 11.985 0 0 1 -1.454-.812 28.918 28.918 0 0 0 16.61-16.61 11.985 11.985 0 0 1 .812 1.454 28.907 28.907 0 0 1 -15.968 15.968z"/><path d="m20.106 59.862a11.985 11.985 0 0 0 1.454-.812 28.918 28.918 0 0 1 -16.61-16.61 11.985 11.985 0 0 0 -.812 1.454 28.907 28.907 0 0 0 15.968 15.968z"/></g><path d="m32 18a13.944 13.944 0 0 1 5.49 1.12l.254-2.04a15.814 15.814 0 0 0 -11.48 0l.255 2.038a13.957 13.957 0 0 1 5.481-1.118z" fill="#c0161d"/><path d="m26.519 19.115-.255-2.038a16.032 16.032 0 0 0 -9.187 9.187l2.038.255a14.05 14.05 0 0 1 7.404-7.404z" fill="#9bc9ff"/><path d="m19.12 37.49-2.04.254a16.025 16.025 0 0 0 9.184 9.179l.255-2.038a14.048 14.048 0 0 1 -7.399-7.395z" fill="#9bc9ff"/><path d="m32 46a13.957 13.957 0 0 1 -5.481-1.115l-.255 2.038a15.814 15.814 0 0 0 11.48 0l-.254-2.04a13.944 13.944 0 0 1 -5.49 1.117z" fill="#c0161d"/><path d="m18 32a13.957 13.957 0 0 1 1.115-5.481l-2.038-.255a15.814 15.814 0 0 0 0 11.48l2.04-.254a13.944 13.944 0 0 1 -1.117-5.49z" fill="#c0161d"/><path d="m37.49 44.88.254 2.04a16.029 16.029 0 0 0 9.176-9.176l-2.04-.254a14.04 14.04 0 0 1 -7.39 7.39z" fill="#9bc9ff"/><path d="m37.744 17.08-.254 2.04a14.048 14.048 0 0 1 7.395 7.4l2.038-.255a16.025 16.025 0 0 0 -9.179-9.185z" fill="#9bc9ff"/><path d="m46 32a13.944 13.944 0 0 1 -1.12 5.49l2.04.254a15.814 15.814 0 0 0 0-11.48l-2.038.255a13.957 13.957 0 0 1 1.118 5.481z" fill="#c0161d"/><path d="m62 32a29.45 29.45 0 0 0 -.992-7.629 27.042 27.042 0 0 0 -.857-2.7 12.99 12.99 0 0 0 -17.821-17.822 27.047 27.047 0 0 0 -2.691-.855 29.994 29.994 0 0 0 -15.268 0 27.042 27.042 0 0 0 -2.7.857 12.99 12.99 0 0 0 -17.822 17.819 27.047 27.047 0 0 0 -.855 2.691 29.841 29.841 0 0 0 0 15.268 27.017 27.017 0 0 0 .857 2.7 12.99 12.99 0 0 0 17.819 17.822 27.391 27.391 0 0 0 2.689.854h.014a29.824 29.824 0 0 0 15.256 0h.012a27.149 27.149 0 0 0 2.689-.854 12.99 12.99 0 0 0 17.821-17.821 27.047 27.047 0 0 0 .855-2.691 29.5 29.5 0 0 0 .994-7.639zm-19.927 26.12c-.6.236-1.219.442-1.846.634l-1.656-13.29a15.082 15.082 0 0 0 6.893-6.893l13.289 1.656c-.191.628-.4 1.25-.637 1.855a27.884 27.884 0 0 1 -16.043 16.038zm-18.3.634c-.627-.192-1.246-.4-1.845-.634h-.011a27.876 27.876 0 0 1 -16.033-16.038v-.011c-.236-.6-.442-1.217-.634-1.844l13.29-1.656a15.079 15.079 0 0 0 6.9 6.9zm-19.773-26.754a27.6 27.6 0 0 1 .73-6.276l13.015 1.631a14.853 14.853 0 0 0 0 9.3l-13.016 1.621a27.662 27.662 0 0 1 -.729-6.276zm17.927-26.12c.6-.235 1.218-.442 1.846-.634l1.666 13.286a15.077 15.077 0 0 0 -6.907 6.907l-13.286-1.665c.192-.629.4-1.251.638-1.856a27.884 27.884 0 0 1 16.043-16.038zm-2.927 26.12a13 13 0 1 1 13 13 13.015 13.015 0 0 1 -13-13zm21.227-26.753c.628.191 1.25.4 1.855.637a27.884 27.884 0 0 1 16.038 16.043c.235.6.442 1.218.634 1.846l-13.286 1.666a15.079 15.079 0 0 0 -6.9-6.9zm19.773 26.753a27.589 27.589 0 0 1 -.73 6.276l-13.018-1.622a14.853 14.853 0 0 0 0-9.3l13.016-1.631a27.662 27.662 0 0 1 .732 6.277zm0-17a11 11 0 0 1 -.857 4.247 29.874 29.874 0 0 0 -14.389-14.39 10.991 10.991 0 0 1 15.246 10.143zm-21.724-10.269-1.622 13.017a14.853 14.853 0 0 0 -9.3 0l-1.63-13.018a28 28 0 0 1 12.552.001zm-23.276-.731a11 11 0 0 1 4.247.857 29.874 29.874 0 0 0 -14.39 14.389 10.991 10.991 0 0 1 10.143-15.246zm0 56a11.007 11.007 0 0 1 -10.152-15.244 29.9 29.9 0 0 0 14.4 14.4 10.988 10.988 0 0 1 -4.248.844zm10.724-.73 1.631-13.015a14.853 14.853 0 0 0 9.3 0l1.621 13.015a28.055 28.055 0 0 1 -12.552 0zm23.276.73a11 11 0 0 1 -4.247-.857 29.874 29.874 0 0 0 14.39-14.389 10.991 10.991 0 0 1 -10.143 15.246z" fill="#231f20"/></g></svg>